{"title":"Red Riding Hood 2011 R5 720p XviD AC3 LKRG [WOZRXYU]","uid":6424605,"size":1615385274,"categoryP":"video","categoryS":"hd___movies","magnet":"?xt=urn:btih:54f230e7d599ec31f52ab8a50090fd686ddc9729&amp;dn=Red+Riding+Hood+2011+R5+720p+XviD+AC3+LKRG+%5BWOZRXYU%5D&amp;tr=udp%3A%2F%2Ftracker.openbittorrent.com%3A80&amp;tr=udp%3A%2F%2Fopen.demonii.com%3A1337&amp;tr=udp%3A%2F%2Ftracker.coppersurfer.tk%3A6969&amp;tr=udp%3A%2F%2Fexodus.desync.com%3A6969","seeders":0,"leechers":0,"uploader":"WOZRXYU","files":1,"time":1306369660,"description":"Red Riding Hood 2011 R5 720p XviD AC3 LKRG \n\ninfo:\n======================\nRed Riding Hood 2011 R5 XviD 720p AC3 LKRG\nSize\t1.540 GB (1,653,028,802 bytes)\n\nEncoded By .......:Xclusive\n Runtime ..........:1:37\n IMDb URL .........:http://www.imdb.com/title/tt1486185/\n Language .........:English\n File Size ........:1.5gb\n\n _______________________ Audio/Video _____________________________\n\n Video\n ID: 0\n Format: MPEG-4 Visual\n Format profile: Advanced Simple@L5\n Format settings, BVOP: Yes\n Format settings, QPel: No\n Format settings, GMC: No warppoints\n Format settings, Matrix: Default (H.263)\n Codec ID: XVID\n Codec ID/Hint: XviD\n Duration: 1h 38mn\n Bit rate: 1 799 Kbps\n Width: 720 pixels\n Height: 304 pixels\n Display aspect ratio: 2.35:1\n Frame rate: 25.000 fps\n Color space: YUV\n Chroma subsampling: 4:2:0\n Bit depth: 8 bits\n Scan type: Progressive\n Bits/(Pixel*Frame): 0.329\n Stream size: 1.24 GiB (82%)\n Writing library: XviD 1.2.1 (UTC 2008-12-04)\n\n Audio\n ID: 1\n Format: AC-3\n Format/Info: Audio Coding 3\n Mode extension: CM (complete main)\n Codec ID: 2000\n Duration: 1h 37mn\n Bit rate mode: Constant\n Bit rate: 384 Kbps\n Channel(s): 6 channels\n Channel positions: Front: L C R, Side: L R, LFE\n Sampling rate: 48.0 KHz\n Bit depth: 16 bits\n Video delay: 2s 700ms\n Stream size: 268 MiB (17%)\n Alignment: Split accross interleaves\n Interleave, duration: 506 ms (12.65 video frames)\n Interleave, preload duration: 500 ms","torrent":{"xt":"urn:btih:54f230e7d599ec31f52ab8a50090fd686ddc9729","amp;dn":"Red+Riding+Hood+2011+R5+720p+XviD+AC3+LKRG+%5BWOZRXYU%5D","amp;tr":["udp%3A%2F%2Ftracker.openbittorrent.com%3A80","udp%3A%2F%2Fopen.demonii.com%3A1337","udp%3A%2F%2Ftracker.coppersurfer.tk%3A6969","udp%3A%2F%2Fexodus.desync.com%3A6969"],"infoHash":"54f230e7d599ec31f52ab8a50090fd686ddc9729","infoHashBuffer":{"type":"Buffer","data":[84,242,48,231,213,153,236,49,245,42,184,165,0,144,253,104,109,220,151,41]},"announce":[],"urlList":[]}}